<svg aria-hidden="true" style="position: absolute; width: 0; height: 0; overflow: hidden;" version="1.1"
    xmlns="http://www.w3.org/2000/svg" xmlns:xlink="http://www.w3.org/1999/xlink">
    <defs>
        <symbol id="icon-close" viewBox="0 0 32 32">
            <path
                d="M30.354 32c0.909-0.001 1.645-0.737 1.645-1.646 0-0.455-0.184-0.866-0.483-1.164l-28.704-28.709c-0.298-0.298-0.71-0.482-1.164-0.482-0.909 0-1.647 0.737-1.647 1.647 0 0.455 0.184 0.866 0.482 1.164l28.708 28.708c0.322 0.32 0.743 0.484 1.164 0.484z">
            </path>
            <path
                d="M1.644 32c0.421 0 0.843-0.16 1.164-0.484l28.709-28.706c0.298-0.298 0.482-0.71 0.482-1.164 0-0.909-0.737-1.647-1.647-1.647-0.455 0-0.866 0.184-1.164 0.482l-28.709 28.709c-0.297 0.298-0.481 0.709-0.481 1.163 0 0.909 0.736 1.646 1.645 1.646h0z">
            </path>
        </symbol>
        <symbol id="icon-menu" viewBox="0 0 60 32">
            <path d="M2 0h56c1.105 0 2 0.895 2 2s-0.895 2-2 2h-56c-1.105 0-2-0.895-2-2s0.895-2 2-2z"></path>
            <path d="M2 14h56c1.105 0 2 0.895 2 2s-0.895 2-2 2h-56c-1.105 0-2-0.895-2-2s0.895-2 2-2z"></path>
            <path d="M2 28h56c1.105 0 2 0.895 2 2s-0.895 2-2 2h-56c-1.105 0-2-0.895-2-2s0.895-2 2-2z"></path>
        </symbol>
        <symbol id="icon-star" viewBox="0 0 34 32">
            <path fill="none" stroke="#ab816c" style="stroke: var(--color1, #ab816c)" stroke-linejoin="miter"
                stroke-linecap="butt" stroke-miterlimit="4" stroke-width="1.6842"
                d="M17.502 3.048l2.509 7.727c0.339 1.022 1.286 1.747 2.403 1.747 0 0 0 0 0 0h8.125c0.465 0.001 0.841 0.377 0.841 0.842 0 0.279-0.135 0.525-0.344 0.679l-0.002 0.002-6.573 4.775c-0.633 0.465-1.040 1.206-1.040 2.043 0 0.279 0.045 0.548 0.129 0.799l-0.005-0.018 2.509 7.727c0.026 0.078 0.041 0.168 0.041 0.261 0 0.465-0.377 0.842-0.842 0.842-0.187 0-0.359-0.061-0.499-0.163l0.002 0.002-6.572-4.775c-0.411-0.301-0.927-0.482-1.485-0.482s-1.074 0.181-1.492 0.487l0.007-0.005-6.572 4.775c-0.137 0.101-0.31 0.162-0.497 0.162-0.465 0-0.842-0.377-0.842-0.842 0-0.094 0.015-0.185 0.044-0.269l-0.002 0.006 2.509-7.725c0.079-0.233 0.124-0.502 0.124-0.782 0-0.837-0.407-1.578-1.033-2.038l-0.007-0.005-6.572-4.773c-0.211-0.155-0.346-0.402-0.346-0.68 0-0.465 0.376-0.842 0.841-0.842h8.123c0 0 0 0 0 0 1.117 0 2.064-0.724 2.398-1.729l0.005-0.018 2.509-7.725c0.113-0.341 0.429-0.582 0.801-0.582s0.688 0.241 0.799 0.576l0.002 0.006z">
            </path>
        </symbol>
        <symbol id="icon-star-full" viewBox="0 0 34 32">
            <path fill="#ab816c" style="fill: var(--color1, #ab816c)"
                d="M15.24 1.561c0.505-1.551 2.7-1.551 3.203 0l2.558 7.872c0.227 0.68 0.857 1.162 1.6 1.162h8.278c1.632 0 2.309 2.088 0.99 3.048l-6.696 4.864c-0.423 0.31-0.694 0.804-0.694 1.362 0 0.186 0.030 0.365 0.086 0.533l-0.003-0.012 2.557 7.872c0.505 1.553-1.272 2.843-2.592 1.883l-6.695-4.864c-0.274-0.201-0.618-0.322-0.99-0.322s-0.716 0.121-0.995 0.325l0.005-0.003-6.696 4.864c-1.319 0.96-3.096-0.332-2.59-1.883l2.557-7.872c0.052-0.155 0.082-0.335 0.082-0.521 0-0.558-0.271-1.052-0.689-1.359l-0.005-0.003-6.696-4.864c-1.319-0.96-0.64-3.048 0.99-3.048h8.276c0 0 0 0 0 0 0.744 0 1.374-0.482 1.598-1.15l0.003-0.012 2.56-7.872z">
            </path>
        </symbol>
        <symbol id="icon-previous" viewBox="0 0 1120 32">
            <path fill="none" stroke="#ab816c" style="stroke: var(--color1, #ab816c)" stroke-linejoin="miter"
                stroke-linecap="butt" stroke-miterlimit="4" stroke-width="32" d="M1120 16h-1120"></path>
        </symbol>
        <symbol id="icon-facebook" viewBox="0 0 32 32">
            <path
                d="M22.512 0.006l-3.616-0.006c-4.064 0-6.69 3.092-6.69 7.876v3.63h-3.638c-0.314 0-0.568 0.294-0.568 0.654v5.26c0 0.36 0.254 0.652 0.568 0.652h3.638v13.276c0 0.36 0.254 0.652 0.568 0.652h4.746c0.314 0 0.568-0.292 0.568-0.652v-13.276h4.252c0.314 0 0.568-0.292 0.568-0.652l0.002-5.26c0-0.174-0.060-0.34-0.166-0.462-0.097-0.116-0.241-0.189-0.402-0.192h-4.254v-3.078c0-1.48 0.308-2.23 1.986-2.23h2.438c0.314 0 0.568-0.294 0.568-0.654v-4.884c0-0.36-0.254-0.652-0.568-0.654z">
            </path>
        </symbol>
        <symbol id="icon-instagram" viewBox="0 0 32 32">
            <path
                d="M16.316 32h-0.32c-0.137 0.001-0.299 0.001-0.461 0.001-2.329 0-4.64-0.072-6.933-0.212l0.314 0.015c-2.066-0.126-3.952-0.84-5.454-2.064-1.45-1.182-2.44-2.78-2.942-4.75-0.44-1.716-0.46-3.4-0.484-5.026-0.016-1.17-0.032-2.554-0.036-3.96 0.004-1.414 0.020-2.8 0.036-3.968 0.022-1.628 0.046-3.31 0.484-5.026 0.5-1.97 1.492-3.568 2.94-4.75 1.506-1.224 3.392-1.94 5.46-2.064 2.252-0.138 4.57-0.2 7.084-0.196 0.132-0.001 0.288-0.001 0.443-0.001 2.335 0 4.653 0.071 6.952 0.212l-0.316-0.015c2.066 0.124 3.952 0.84 5.454 2.064 1.45 1.182 2.44 2.78 2.944 4.75 0.436 1.716 0.46 3.4 0.48 5.026 0.018 1.17 0.034 2.554 0.038 3.96v0.006c-0.004 1.408-0.020 2.792-0.036 3.96-0.022 1.63-0.046 3.312-0.482 5.028-0.504 1.97-1.494 3.568-2.944 4.75-1.502 1.224-3.388 1.94-5.454 2.064-1.968 0.125-4.268 0.196-6.585 0.196-0.064 0-0.129-0-0.193-0h0.010zM15.996 29.5c0.143 0.001 0.312 0.001 0.48 0.001 2.271 0 4.526-0.069 6.763-0.206l-0.307 0.015c1.56-0.096 2.916-0.602 4.026-1.508 1.026-0.836 1.734-1.99 2.1-3.43 0.364-1.428 0.386-2.96 0.406-4.444 0.016-1.16 0.032-2.534 0.036-3.928-0.004-1.394-0.020-2.768-0.036-3.93-0.020-1.48-0.040-3.014-0.406-4.44-0.368-1.44-1.074-2.596-2.1-3.432-1.11-0.906-2.464-1.412-4.026-1.508-1.93-0.122-4.186-0.191-6.457-0.191-0.167 0-0.333 0-0.5 0.001l0.026-0c-0.144-0.001-0.314-0.001-0.485-0.001-2.269 0-4.522 0.069-6.756 0.206l0.307-0.015c-1.56 0.096-2.916 0.602-4.026 1.508-1.026 0.836-1.734 1.99-2.1 3.43-0.364 1.428-0.386 2.96-0.406 4.442-0.016 1.162-0.032 2.538-0.036 3.932 0.004 1.39 0.020 2.766 0.036 3.926 0.020 1.484 0.040 3.016 0.406 4.444 0.366 1.44 1.074 2.594 2.1 3.43 1.11 0.906 2.464 1.412 4.026 1.508 2.2 0.134 4.468 0.196 6.928 0.19zM15.936 23.812c-4.312-0.006-7.805-3.5-7.81-7.812v-0c0.005-4.313 3.501-7.809 7.814-7.812h0c4.312 0.006 7.805 3.5 7.81 7.812v0c-0.005 4.313-3.499 7.807-7.812 7.812h-0zM15.936 10.688c-2.931 0.006-5.305 2.381-5.31 5.312v0c0.005 2.933 2.381 5.309 5.314 5.312h0c2.931-0.006 5.305-2.381 5.31-5.312v-0c-0.005-2.932-2.38-5.307-5.312-5.312h-0zM24.626 5.688c-0.018-0.001-0.040-0.001-0.061-0.001-1.036 0-1.876 0.84-1.876 1.876s0.84 1.876 1.876 1.876c0.022 0 0.043-0 0.064-0.001l-0.003 0c1.009-0.034 1.815-0.86 1.815-1.875s-0.805-1.841-1.812-1.875l-0.003-0z">
            </path>
        </symbol>
        <symbol id="icon-twitter" viewBox="0 0 32 32">
            <path
                d="M32 5.44c-1.097 0.551-2.37 0.957-3.712 1.152l-0.068 0.008c1.36-0.908 2.398-2.336 2.886-4.054-1.19 0.803-2.582 1.417-4.077 1.758l-0.083 0.016c-1.204-1.432-2.92-2.32-4.792-2.32-3.632 0-6.556 3.296-6.556 7.336 0 0.58 0.044 1.14 0.152 1.672-5.454-0.298-10.28-3.22-13.522-7.672-0.566 1.074-0.898 2.347-0.898 3.697 0 0.004 0 0.008 0 0.011v-0.001c0 2.54 1.17 4.79 2.914 6.094-1.103-0.038-2.121-0.369-2.988-0.918l0.024 0.014v0.080c0 3.566 2.274 6.526 5.256 7.208-0.534 0.162-1.116 0.24-1.72 0.24-0.42 0-0.844-0.026-1.242-0.124 0.85 2.904 3.262 5.040 6.13 5.108-2.232 1.952-5.066 3.128-8.134 3.128-0.538 0-1.054-0.028-1.57-0.1 2.906 2.094 6.35 3.29 10.064 3.29 12.072 0 18.672-11.18 18.672-20.868 0-0.324-0.010-0.638-0.024-0.948 1.308-1.060 2.402-2.32 3.253-3.744l0.035-0.064z">
            </path>
        </symbol>
        <symbol id="icon-toque" viewBox="0 0 32 32">
            <path fill="#674d40" style="fill: var(--color2, #674d40)"
                d="M23.048 8.572c-0.122-0.002-0.231-0.057-0.304-0.144l-0-0.001c-0.078-0.092-0.125-0.212-0.125-0.343 0-0.002 0-0.003 0-0.005v0c-0.033-1.889-0.712-3.689-1.888-5.011s-2.757-2.063-4.404-2.063-3.228 0.741-4.404 2.063c-1.178 1.322-1.855 3.122-1.888 5.011 0 0.131-0.045 0.256-0.125 0.348-0.074 0.087-0.182 0.143-0.304 0.145h-0c-0.122-0.002-0.23-0.058-0.303-0.144l-0.001-0.001c-0.079-0.092-0.127-0.213-0.127-0.345 0-0.001 0-0.002 0-0.004v0c0.029-2.154 0.796-4.209 2.134-5.722 1.34-1.509 3.141-2.358 5.018-2.358 1.879 0 3.681 0.847 5.020 2.359 1.338 1.51 2.104 3.566 2.132 5.72 0 0.131-0.045 0.256-0.125 0.348-0.073 0.087-0.182 0.143-0.303 0.145h-0z">
            </path>
            <path fill="#674d40" style="fill: var(--color2, #674d40)"
                d="M24.302 19.732c-0.122-0.001-0.231-0.056-0.304-0.143l-0-0.001c-0.080-0.092-0.128-0.213-0.128-0.346 0-0 0-0.001 0-0.001v0c0-0.132 0.044-0.256 0.124-0.351 0.073-0.088 0.181-0.143 0.303-0.146h0c1.637-0.012 3.205-0.759 4.366-2.083 1.162-1.322 1.824-3.116 1.846-4.995-0.017-1.896-0.687-3.707-1.866-5.037s-2.769-2.068-4.422-2.054c-0.635 0-1.266 0.106-1.873 0.32-0.035 0.012-0.076 0.019-0.119 0.019-0.076 0-0.147-0.022-0.207-0.061l0.002 0.001c-0.102-0.066-0.176-0.167-0.207-0.286l-0.001-0.003c-0.012-0.043-0.019-0.093-0.019-0.144 0-0.082 0.018-0.16 0.050-0.231l-0.001 0.003c0.052-0.115 0.142-0.202 0.25-0.243 0.631-0.229 1.359-0.361 2.118-0.361 0.003 0 0.005 0 0.008 0h-0c1.882-0.014 3.69 0.828 5.030 2.342s2.102 3.578 2.118 5.734c-0.023 2.138-0.774 4.179-2.095 5.687-1.32 1.508-3.104 2.362-4.966 2.377h-0.005zM8.346 19.732h-0.004c-1.864-0.015-3.647-0.869-4.966-2.377-1.322-1.508-2.075-3.549-2.095-5.687 0.017-2.157 0.778-4.22 2.118-5.734s3.149-2.356 5.030-2.342c0.719-0.001 1.435 0.12 2.125 0.362 0.058 0.020 0.108 0.051 0.15 0.090l-0-0c0.044 0.041 0.080 0.091 0.106 0.146l0.001 0.003c0.033 0.069 0.053 0.149 0.053 0.235 0 0.118-0.037 0.228-0.101 0.317l0.001-0.002c-0.036 0.049-0.079 0.090-0.13 0.12l-0.002 0.001c-0.057 0.034-0.126 0.055-0.199 0.055-0.047 0-0.092-0.008-0.134-0.024l0.003 0.001c-0.556-0.202-1.198-0.319-1.867-0.319-0.002 0-0.005 0-0.007 0h0c-1.651-0.013-3.242 0.724-4.421 2.054s-1.851 3.141-1.866 5.037c0.020 1.879 0.684 3.672 1.844 4.995 1.162 1.324 2.73 2.071 4.367 2.083 0.060 0.001 0.116 0.015 0.166 0.039l-0.002-0.001c0.051 0.026 0.1 0.061 0.14 0.108 0.075 0.094 0.121 0.215 0.121 0.346 0 0.134-0.047 0.256-0.126 0.352l0.001-0.001c-0.039 0.044-0.085 0.080-0.138 0.105l-0.003 0.001c-0.048 0.023-0.104 0.037-0.164 0.037h-0z">
            </path>
            <path fill="#674d40" style="fill: var(--color2, #674d40)"
                d="M24.302 32h-15.956c-0.122-0.002-0.231-0.057-0.304-0.144l-0.001-0.001c-0.078-0.092-0.125-0.212-0.125-0.343 0-0.002 0-0.003 0-0.005v0-12.269c0-0.131 0.045-0.256 0.125-0.349 0.074-0.087 0.183-0.142 0.304-0.143h0c0.114 0 0.223 0.051 0.303 0.143 0.081 0.093 0.125 0.218 0.125 0.349v11.773h15.098v-11.773c0-0.131 0.045-0.256 0.125-0.349 0.074-0.087 0.183-0.142 0.304-0.143h0c0.114 0 0.223 0.051 0.303 0.143 0.081 0.093 0.127 0.218 0.127 0.349v12.268c0 0.131-0.046 0.256-0.127 0.348-0.073 0.087-0.182 0.143-0.303 0.145h-0z">
            </path>
            <path fill="#674d40" style="fill: var(--color2, #674d40)"
                d="M27.293 27.222h-15.955c-0.122-0.002-0.231-0.057-0.304-0.144l-0.001-0.001c-0.078-0.092-0.125-0.212-0.125-0.343 0-0.002 0-0.004 0-0.006v0c0-0.131 0.045-0.256 0.125-0.348 0.074-0.087 0.182-0.143 0.304-0.145h15.955c0.115 0 0.224 0.051 0.305 0.145 0.081 0.092 0.125 0.218 0.125 0.348 0 0.132-0.045 0.256-0.125 0.349-0.074 0.087-0.182 0.143-0.304 0.145h-0z">
            </path>
        </symbol>
        <symbol id="icon-people" viewBox="0 0 32 32">
            <path fill="#674d40" style="fill: var(--color2, #674d40)"
                d="M11.887 0c-3.293 0-5.974 3.077-5.974 6.856s2.682 6.856 5.975 6.856 5.975-3.077 5.975-6.856-2.683-6.856-5.975-6.856zM11.887 12.562c-2.749 0-4.979-2.566-4.979-5.714 0-3.146 2.236-5.713 4.979-5.713 2.749 0 4.979 2.566 4.979 5.713 0 3.149-2.236 5.714-4.979 5.714zM24.125 2.845c-2.474 0-4.484 2.307-4.484 5.146s2.010 5.146 4.484 5.146c2.476 0 4.485-2.307 4.485-5.146s-2.010-5.146-4.485-5.146zM24.125 12c-1.924 0-3.488-1.795-3.488-4.003s1.564-4.003 3.488-4.003c1.925 0 3.489 1.795 3.489 4.003s-1.564 4.003-3.489 4.003z">
            </path>
            <path fill="#674d40" style="fill: var(--color2, #674d40)"
                d="M32.148 20.678c-0.452-3.126-2.145-5.761-5.029-7.142 0 0-1.276 1.107-2.994 1.073-1.875-0.042-2.994-1.073-2.994-1.073s-1.393 0.596-2.516 1.837c-1.039-1.059-2.793-1.92-2.793-1.92s-1.606 1.402-3.941 1.38c-2.45-0.020-3.928-1.381-3.928-1.381s-5.298 2.089-6.415 9.176c0 0-1.198 3.757 1.576 9.372h17.554s1.247-2.488 1.467-4.003h8.731c2.145-3.73 1.284-7.319 1.284-7.319zM20.050 30.857h-16.32c-2.131-4.646-1.21-8.040-1.21-8.040 0.52-3.555 2.511-6.554 5.359-8.077 1.123 0.773 2.513 1.235 4.011 1.235s2.888-0.462 4.035-1.251l-0.024 0.016c2.848 1.523 4.838 4.522 5.359 8.077-0.006 0 0.879 4.178-1.211 8.040zM30.285 26.854h-7.949c0.305-2.019-0.099-4.227-0.099-4.227-0.36-2.496-1.386-4.746-2.89-6.484 0.49-0.513 1.051-0.951 1.669-1.3l0.036-0.019c0.863 0.58 1.926 0.925 3.070 0.925s2.207-0.345 3.090-0.938l-0.020 0.013c2.108 1.157 3.588 3.393 3.972 6.043 0 0 0.727 2.833-0.879 5.987z">
            </path>
        </symbol>
        <symbol id="icon-clock" viewBox="0 0 32 32">
            <path fill="#674d40" style="fill: var(--color2, #674d40)"
                d="M16 0c-8.823 0-16 7.177-16 16 0 8.822 7.177 16 16 16 8.822 0 16-7.178 16-16 0-8.823-7.178-16-16-16zM16 30.934c-8.234 0-14.934-6.7-14.934-14.934s6.7-14.934 14.934-14.934 14.934 6.7 14.934 14.934-6.7 14.934-14.934 14.934z">
            </path>
            <path fill="#674d40" style="fill: var(--color2, #674d40)"
                d="M16.534 13.878v-5.409c0-0.295-0.239-0.534-0.534-0.534s-0.534 0.239-0.534 0.534v5.409c-0.747 0.2-1.324 0.777-1.52 1.51l-0.003 0.015h-3.809c-0.008-0-0.017-0.001-0.026-0.001-0.295 0-0.534 0.239-0.534 0.534s0.239 0.534 0.534 0.534c0.009 0 0.018-0 0.027-0.001l-0.001 0h3.809c0.238 0.918 1.066 1.6 2.057 1.6 1.178 0 2.134-0.956 2.134-2.132 0-0.992-0.684-1.819-1.6-2.058zM16 17.002c-0.589-0.001-1.066-0.478-1.066-1.068s0.478-1.068 1.068-1.068c0 0 0.001 0 0.001 0h-0c0.589 0.001 1.066 0.478 1.066 1.068s-0.478 1.068-1.068 1.068c-0 0-0.001 0-0.001 0h0zM16 5.268c0.294 0 0.534-0.238 0.534-0.532v-0.534c0-0.295-0.239-0.534-0.534-0.534s-0.534 0.239-0.534 0.534v0.534c0 0.294 0.239 0.532 0.534 0.532zM16 26.602c-0.295 0-0.534 0.239-0.534 0.534v0 0.532c0 0.295 0.239 0.534 0.534 0.534s0.534-0.239 0.534-0.534v-0.532c0-0.295-0.239-0.534-0.534-0.534v0zM27.734 15.402h-0.534c-0.008-0-0.017-0.001-0.026-0.001-0.295 0-0.534 0.239-0.534 0.534s0.239 0.534 0.534 0.534c0.009 0 0.018-0 0.027-0.001l-0.001 0h0.534c0.008 0 0.017 0.001 0.026 0.001 0.295 0 0.534-0.239 0.534-0.534s-0.239-0.534-0.534-0.534c-0.009 0-0.018 0-0.027 0.001l0.001-0zM4.8 15.402h-0.534c-0.294 0-0.533 0.239-0.533 0.533s0.239 0.533 0.533 0.533v0h0.534c0.008 0 0.017 0.001 0.026 0.001 0.295 0 0.534-0.239 0.534-0.534s-0.239-0.534-0.534-0.534c-0.009 0-0.018 0-0.027 0.001l0.001-0zM23.919 7.261l-0.378 0.378c-0.096 0.097-0.156 0.23-0.156 0.377 0 0.295 0.239 0.534 0.534 0.534 0.148 0 0.281-0.060 0.378-0.157v0l0.376-0.378c0.096-0.096 0.156-0.23 0.156-0.377 0-0.294-0.239-0.533-0.533-0.533-0.147 0-0.28 0.060-0.377 0.156v0zM7.703 23.478l-0.376 0.378c-0.096 0.096-0.156 0.23-0.156 0.377 0 0.294 0.239 0.533 0.533 0.533 0.147 0 0.28-0.060 0.377-0.156l0.378-0.378c0.096-0.097 0.156-0.23 0.156-0.377 0-0.295-0.239-0.534-0.534-0.534-0.147 0-0.281 0.060-0.378 0.157v0zM24.297 23.478c-0.097-0.097-0.23-0.156-0.378-0.156-0.295 0-0.534 0.239-0.534 0.534 0 0.147 0.060 0.281 0.156 0.378v0l0.378 0.376c0.096 0.097 0.23 0.158 0.378 0.158s0.281-0.060 0.378-0.158l0-0c0.097-0.096 0.157-0.23 0.157-0.378s-0.060-0.281-0.157-0.378l-0-0-0.378-0.376zM8.081 7.261c-0.097-0.097-0.23-0.156-0.378-0.156-0.295 0-0.534 0.239-0.534 0.534 0 0.147 0.060 0.281 0.156 0.378v0l0.378 0.376c0.096 0.097 0.23 0.157 0.378 0.157s0.281-0.060 0.378-0.157l0-0c0.097-0.096 0.157-0.23 0.157-0.378s-0.060-0.281-0.157-0.378l-0-0-0.378-0.376z">
            </path>
        </symbol>
        <symbol id="icon-talk" viewBox="0 0 32 32">
            <path fill="#674d40" style="fill: var(--color2, #674d40)"
                d="M24.621 14.939c0-6.705-6.161-11.099-12.311-11.099-6.175 0-12.31 4.416-12.31 11.099 0 2.529 0.965 5.002 2.719 6.963 0.048 0.057 0.077 0.132 0.077 0.214 0 0.030-0.004 0.058-0.011 0.086l0.001-0.002c-0.55 2.314-1.855 4.403-2.39 5.197-0.092 0.138-0.147 0.307-0.147 0.49 0 0.13 0.028 0.253 0.078 0.364l-0.002-0.006c0.12 0.271 0.357 0.438 0.621 0.438h0.018c2.619-0.074 5.654-0.922 7.529-3.039 0.045-0.053 0.112-0.086 0.187-0.086 0.023 0 0.046 0.003 0.067 0.009l-0.002-0c1.152 0.312 2.353 0.472 3.566 0.472 6.173 0 12.311-4.415 12.311-11.1zM8.96 24.52c-0.085-0.023-0.182-0.037-0.282-0.037-0.338 0-0.64 0.152-0.842 0.392l-0.001 0.002c-1.876 2.116-4.94 2.598-6.39 2.705 0.663-1.050 1.74-2.976 2.245-5.1 0.028-0.11 0.045-0.236 0.045-0.366 0-0.377-0.137-0.721-0.364-0.987l0.002 0.002c-1.594-1.782-2.436-3.923-2.436-6.193 0-5.527 5.102-10.022 11.373-10.022 6.272 0 11.373 4.495 11.373 10.022s-5.101 10.024-11.373 10.024c-0.005 0-0.011 0-0.016 0-1.186 0-2.334-0.162-3.423-0.464l0.090 0.021z">
            </path>
            <path fill="#674d40" style="fill: var(--color2, #674d40)"
                d="M27.635 23.875c2.733-1.585 4.365-4.285 4.365-7.224 0-4.154-3.273-7.703-7.782-8.439-0.256-0.042-0.494 0.163-0.53 0.456-0.037 0.294 0.141 0.567 0.397 0.609 4.045 0.659 6.979 3.761 6.979 7.374 0 2.525-1.44 4.867-3.85 6.264-0.47 0.273-0.721 0.873-0.611 1.462 0.228 1.233 0.714 2.373 1.103 3.146-2.767-0.529-3.817-2.052-4.148-2.711-0.205-0.408-0.589-0.66-1.001-0.66h-0.038c-0.52 0-1.041-0.041-1.546-0.123-0.256-0.041-0.494 0.164-0.53 0.458s0.142 0.566 0.399 0.607c0.55 0.090 1.114 0.134 1.677 0.134h0.038c0.079 0 0.151 0.046 0.188 0.122 1.27 2.524 4.188 3.168 5.385 3.328 0.264 0.035 0.515-0.102 0.655-0.362 0.066-0.12 0.105-0.262 0.105-0.414 0-0.154-0.040-0.299-0.111-0.425l0.002 0.004c-0.361-0.644-1.004-1.933-1.262-3.328-0.003-0.016-0.006-0.035-0.006-0.054 0-0.093 0.048-0.176 0.121-0.223l0.001-0.001zM5.016 13.015c-0.896 0-1.626 0.837-1.626 1.865s0.73 1.864 1.626 1.864c0.896 0 1.626-0.836 1.626-1.864s-0.73-1.865-1.626-1.865zM5.016 15.668c-0.379 0-0.687-0.355-0.687-0.788 0-0.435 0.307-0.788 0.687-0.788 0.379 0 0.687 0.353 0.687 0.788s-0.308 0.788-0.687 0.788zM9.651 13.015c-0.896 0-1.626 0.837-1.626 1.865s0.73 1.864 1.626 1.864c0.896 0 1.624-0.836 1.624-1.864s-0.73-1.865-1.626-1.865zM9.651 15.668c-0.379 0-0.687-0.355-0.687-0.788 0-0.435 0.307-0.788 0.687-0.788 0.379 0 0.686 0.353 0.686 0.788s-0.307 0.788-0.686 0.788zM14.285 13.015c-0.896 0-1.624 0.837-1.624 1.865s0.73 1.864 1.626 1.864c0.896 0 1.624-0.836 1.624-1.864s-0.73-1.865-1.626-1.865zM14.285 15.668c-0.379 0-0.687-0.355-0.687-0.788 0-0.435 0.308-0.788 0.687-0.788s0.687 0.353 0.687 0.788c0 0.435-0.307 0.788-0.687 0.788zM18.92 13.015c-0.896 0-1.626 0.837-1.626 1.865s0.73 1.864 1.626 1.864c0.896 0 1.626-0.836 1.626-1.864s-0.73-1.865-1.626-1.865zM18.92 15.668c-0.379 0-0.687-0.355-0.687-0.788 0-0.435 0.308-0.788 0.687-0.788s0.687 0.353 0.687 0.788c0 0.435-0.308 0.788-0.687 0.788z">
            </path>
        </symbol>
        <symbol id="icon-rate4" viewBox="0 0 173 32">
            <path fill="#ab816c" style="fill: var(--color1, #ab816c)"
                d="M14.249 4.68c0.384-1.179 2.052-1.179 2.435 0l1.907 5.873c0.172 0.517 0.652 0.883 1.217 0.883 0.001 0 0.001 0 0.002 0h6.173c1.242 0 1.756 1.587 0.753 2.317l-4.995 3.629c-0.321 0.235-0.527 0.611-0.527 1.035 0 0.141 0.023 0.278 0.065 0.405l-0.003-0.009 1.907 5.871c0.384 1.18-0.966 2.161-1.97 1.431l-4.995-3.629c-0.208-0.153-0.469-0.244-0.752-0.244s-0.544 0.092-0.756 0.247l0.004-0.003-4.996 3.629c-1.002 0.73-2.353-0.251-1.97-1.431l1.907-5.871c0.040-0.118 0.063-0.255 0.063-0.396 0-0.424-0.206-0.799-0.523-1.032l-0.004-0.003-4.996-3.629c-1.002-0.73-0.486-2.317 0.753-2.317h6.175c0.565-0 1.044-0.366 1.213-0.874l0.003-0.009 1.908-5.873z">
            </path>
            <path fill="none" stroke="#ab816c" style="stroke: var(--color1, #ab816c)" stroke-linejoin="miter"
                stroke-linecap="butt" stroke-miterlimit="4" stroke-width="1.28"
                d="M156.724 4.877c0.086-0.259 0.326-0.442 0.609-0.442s0.523 0.183 0.607 0.438l0.001 0.005 1.908 5.873c0.256 0.791 0.993 1.327 1.825 1.327h6.175c0.353 0 0.639 0.287 0.639 0.64 0 0.212-0.103 0.399-0.261 0.516l-0.002 0.001-4.996 3.629c-0.482 0.354-0.791 0.918-0.791 1.554 0 0.212 0.034 0.415 0.097 0.606l-0.004-0.014 1.908 5.873c0.020 0.059 0.031 0.127 0.031 0.197 0 0.353-0.287 0.64-0.64 0.64-0.141 0-0.272-0.046-0.377-0.123l0.002 0.001-4.996-3.629c-0.312-0.229-0.704-0.367-1.128-0.367s-0.816 0.137-1.134 0.37l0.005-0.004-4.995 3.629c-0.104 0.077-0.236 0.123-0.378 0.123-0.353 0-0.64-0.287-0.64-0.64 0-0.072 0.012-0.14 0.033-0.205l-0.001 0.005 1.908-5.871c0.060-0.177 0.094-0.381 0.094-0.593 0-0.636-0.31-1.2-0.786-1.55l-0.005-0.004-4.995-3.629c-0.16-0.118-0.263-0.305-0.263-0.517 0-0.353 0.286-0.64 0.639-0.64h6.173c0 0 0 0 0 0 0.849 0 1.569-0.55 1.822-1.314l0.004-0.014 1.907-5.871z">
            </path>
            <path fill="#ab816c" style="fill: var(--color1, #ab816c)"
                d="M120.649 4.68c0.384-1.179 2.052-1.179 2.435 0l1.907 5.873c0.172 0.517 0.652 0.883 1.217 0.883 0.001 0 0.001 0 0.002 0h6.173c1.24 0 1.756 1.587 0.753 2.317l-4.995 3.629c-0.321 0.235-0.527 0.611-0.527 1.035 0 0.141 0.023 0.278 0.065 0.405l-0.003-0.009 1.907 5.871c0.384 1.18-0.966 2.161-1.97 1.431l-4.995-3.629c-0.208-0.153-0.469-0.244-0.752-0.244s-0.544 0.092-0.756 0.247l0.004-0.003-4.996 3.629c-1.004 0.73-2.353-0.251-1.97-1.431l1.908-5.871c0.040-0.118 0.063-0.254 0.063-0.396 0-0.424-0.206-0.8-0.524-1.033l-0.004-0.003-4.996-3.629c-1.002-0.73-0.486-2.317 0.753-2.317h6.175c0.565-0 1.044-0.366 1.213-0.874l0.003-0.009 1.908-5.873zM85.183 4.68c0.384-1.179 2.052-1.179 2.435 0l1.907 5.873c0.172 0.517 0.652 0.883 1.217 0.883 0.001 0 0.001 0 0.002 0h6.173c1.24 0 1.756 1.587 0.753 2.317l-4.995 3.629c-0.322 0.235-0.528 0.612-0.528 1.036 0 0.141 0.023 0.277 0.065 0.404l-0.003-0.009 1.907 5.871c0.384 1.18-0.965 2.161-1.969 1.431l-4.995-3.629c-0.208-0.153-0.47-0.245-0.753-0.245s-0.544 0.092-0.756 0.247l0.004-0.003-4.995 3.629c-1.004 0.73-2.353-0.251-1.97-1.431l1.907-5.871c0.040-0.118 0.063-0.254 0.063-0.396 0-0.424-0.206-0.8-0.524-1.033l-0.004-0.003-4.995-3.629c-1.004-0.73-0.486-2.317 0.753-2.317h6.173c0 0 0 0 0 0 0.565 0 1.045-0.366 1.214-0.874l0.003-0.009 1.907-5.873zM49.715 4.68c0.384-1.179 2.052-1.179 2.436 0l1.907 5.873c0.172 0.517 0.652 0.883 1.217 0.883 0 0 0 0 0 0h6.175c1.239 0 1.755 1.587 0.751 2.317l-4.995 3.629c-0.321 0.235-0.527 0.611-0.527 1.035 0 0.141 0.023 0.278 0.065 0.405l-0.003-0.009 1.907 5.871c0.384 1.18-0.966 2.161-1.969 1.431l-4.996-3.629c-0.208-0.153-0.469-0.244-0.752-0.244s-0.544 0.092-0.756 0.247l0.004-0.003-4.995 3.629c-1.004 0.73-2.354-0.251-1.971-1.431l1.908-5.871c0.040-0.118 0.063-0.254 0.063-0.396 0-0.424-0.206-0.8-0.524-1.033l-0.004-0.003-4.995-3.629c-1.004-0.73-0.488-2.317 0.753-2.317h6.173c0 0 0 0 0 0 0.565 0 1.045-0.366 1.214-0.874l0.003-0.009 1.907-5.873z">
            </path>
        </symbol>
        <symbol id="icon-rate5" viewBox="0 0 181 32">
            <path fill="#ab816c" style="fill: var(--color1, #ab816c)"
                d="M14.732 3.903c0.4-1.228 2.137-1.228 2.536 0l2.025 6.232c0.179 0.538 0.678 0.92 1.267 0.92h6.553c1.292 0 1.828 1.653 0.784 2.413l-5.301 3.851c-0.335 0.245-0.549 0.637-0.549 1.078 0 0.147 0.024 0.289 0.068 0.422l-0.003-0.009 2.024 6.232c0.4 1.229-1.007 2.251-2.051 1.491l-5.301-3.851c-0.217-0.159-0.489-0.255-0.784-0.255s-0.567 0.096-0.788 0.257l0.004-0.003-5.301 3.851c-1.044 0.76-2.451-0.263-2.051-1.491l2.024-6.232c0.041-0.123 0.065-0.265 0.065-0.412 0-0.442-0.215-0.833-0.546-1.076l-0.004-0.003-5.301-3.851c-1.044-0.76-0.507-2.413 0.784-2.413h6.552c0 0 0 0 0 0 0.589 0 1.088-0.381 1.265-0.911l0.003-0.009 2.025-6.232zM164.065 3.903c0.399-1.228 2.137-1.228 2.536 0l2.025 6.232c0.179 0.539 0.679 0.92 1.268 0.92 0 0 0 0 0 0h6.552c1.292 0 1.828 1.653 0.784 2.413l-5.301 3.851c-0.335 0.245-0.549 0.637-0.549 1.078 0 0.147 0.024 0.289 0.068 0.422l-0.003-0.009 2.024 6.232c0.4 1.229-1.007 2.251-2.051 1.491l-5.301-3.851c-0.217-0.159-0.489-0.255-0.784-0.255s-0.567 0.096-0.788 0.257l0.004-0.003-5.301 3.851c-1.044 0.76-2.451-0.263-2.051-1.491l2.024-6.232c0.041-0.123 0.065-0.265 0.065-0.412 0-0.442-0.215-0.833-0.546-1.076l-0.004-0.003-5.301-3.851c-1.044-0.76-0.508-2.413 0.784-2.413h6.552c0 0 0 0 0 0 0.589 0 1.088-0.381 1.265-0.911l0.003-0.009 2.025-6.232zM126.732 3.903c0.4-1.228 2.137-1.228 2.536 0l2.025 6.232c0.179 0.538 0.678 0.92 1.267 0.92h6.553c1.292 0 1.828 1.653 0.784 2.413l-5.301 3.851c-0.335 0.245-0.549 0.637-0.549 1.078 0 0.147 0.024 0.289 0.068 0.422l-0.003-0.009 2.024 6.232c0.4 1.229-1.007 2.251-2.051 1.491l-5.301-3.851c-0.217-0.159-0.489-0.255-0.784-0.255s-0.567 0.096-0.788 0.257l0.004-0.003-5.301 3.851c-1.044 0.76-2.451-0.263-2.051-1.491l2.024-6.232c0.041-0.123 0.065-0.265 0.065-0.412 0-0.442-0.215-0.833-0.546-1.076l-0.004-0.003-5.301-3.851c-1.045-0.76-0.507-2.413 0.784-2.413h6.552c0 0 0 0 0 0 0.589 0 1.088-0.381 1.265-0.911l0.003-0.009 2.025-6.232zM89.399 3.903c0.4-1.228 2.137-1.228 2.536 0l2.025 6.232c0.179 0.538 0.678 0.92 1.267 0.92h6.553c1.292 0 1.829 1.653 0.784 2.413l-5.301 3.851c-0.335 0.245-0.549 0.637-0.549 1.078 0 0.147 0.024 0.289 0.068 0.422l-0.003-0.009 2.024 6.232c0.4 1.229-1.007 2.251-2.051 1.491l-5.301-3.851c-0.217-0.159-0.489-0.255-0.784-0.255s-0.567 0.096-0.788 0.257l0.004-0.003-5.301 3.851c-1.044 0.76-2.451-0.263-2.051-1.491l2.024-6.232c0.041-0.123 0.065-0.265 0.065-0.412 0-0.442-0.215-0.833-0.546-1.076l-0.004-0.003-5.301-3.851c-1.044-0.76-0.507-2.413 0.784-2.413h6.552c0 0 0 0 0 0 0.589 0 1.088-0.381 1.265-0.911l0.003-0.009 2.025-6.232zM52.065 3.903c0.4-1.228 2.137-1.228 2.536 0l2.025 6.232c0.179 0.538 0.678 0.92 1.267 0.92h6.553c1.292 0 1.828 1.653 0.784 2.413l-5.301 3.851c-0.335 0.245-0.549 0.637-0.549 1.078 0 0.147 0.024 0.289 0.068 0.422l-0.003-0.009 2.024 6.232c0.4 1.229-1.007 2.251-2.051 1.491l-5.301-3.851c-0.217-0.159-0.489-0.255-0.784-0.255s-0.567 0.096-0.788 0.257l0.004-0.003-5.3 3.851c-1.045 0.76-2.452-0.263-2.053-1.491l2.027-6.232c0.041-0.123 0.065-0.264 0.065-0.411 0-0.442-0.215-0.834-0.547-1.077l-0.004-0.003-5.301-3.851c-1.045-0.76-0.507-2.413 0.784-2.413h6.552c0 0 0 0 0 0 0.589 0 1.088-0.381 1.265-0.911l0.003-0.009 2.025-6.232z">
            </path>
        </symbol>
        <symbol id="icon-phone" viewBox="0 0 32 32">
            <path
                d="M29.43 20.47c-0.010 0-0.021 0-0.033 0-2.027 0-3.978-0.324-5.805-0.924l0.131 0.037c-0.894-0.295-1.991-0.025-2.535 0.519l-3.599 2.649c-4.172-2.171-6.742-4.677-8.938-8.711l2.634-3.414c0.687-0.667 0.93-1.642 0.638-2.555-0.577-1.653-0.911-3.559-0.911-5.543 0-0.009 0-0.018 0-0.026v0.001c-0.002-1.381-1.157-2.503-2.57-2.503h-5.876c-1.415 0-2.567 1.122-2.567 2.503 0 15.815 13.201 28.682 29.43 28.682 1.415 0 2.567-1.122 2.567-2.503v-5.711c0-1.378-1.152-2.501-2.567-2.501z">
            </path>
        </symbol>
        <symbol id="icon-location" viewBox="0 0 23 32">
            <path
                d="M11.733 0c6.47 0 11.733 5.131 11.733 11.435 0 2.496-0.811 4.866-2.34 6.854l-8.67 11.381c-0.021 0.026-0.055 0.036-0.079 0.062-0.163 0.178-0.396 0.29-0.656 0.29-0.289 0-0.546-0.138-0.708-0.352l-0.002-0.002c-2.498-3.245-7.074-9.308-8.832-11.595l-0.004-0.004-0.011-0.013c-1.353-1.824-2.165-4.12-2.165-6.605 0-0.006 0-0.012 0-0.017v0.001c0-6.304 5.263-11.435 11.733-11.435zM11.733 17.604c3.484 0 6.33-2.773 6.33-6.17 0-3.394-2.846-6.17-6.33-6.17s-6.33 2.773-6.33 6.17c0 3.394 2.846 6.17 6.33 6.17z">
            </path>
        </symbol>
        <symbol id="icon-logo" viewBox="0 0 72 32">
            <path
                d="M42.45 15.997c0 0.261-0.008 0.521 0 0.783 0.089 2.653-0.739 5.043-2.069 7.296-0.446 0.756-0.872 1.524-1.256 2.314-0.317 0.649-0.757 1.104-1.442 1.37-0.382 0.148-0.737 0.405-1.058 0.669-1.476 1.218-3.15 2.091-4.941 2.705-1.189 0.408-2.414 0.767-3.706 0.751-0.385-0.004-0.771 0.114-1.157 0.115s-0.772-0.124-1.154-0.108c-1.666 0.071-3.21-0.441-4.742-0.979-1.673-0.586-3.15-1.513-4.539-2.617-1.961-1.558-3.358-3.52-4.385-5.765-0.554-1.211-1.004-2.46-1.132-3.804-0.021-0.223-0.095-0.444-0.161-0.66-0.466-1.507-0.198-2.985 0.090-4.486 0.22-1.148 0.447-2.283 0.877-3.373 1.135-2.884 2.938-5.245 5.435-7.1 2.081-1.545 4.411-2.494 6.944-2.902 2.907-0.468 5.744-0.131 8.497 0.963 1.374 0.548 2.67 1.241 3.802 2.159 1.056 0.856 2.008 1.858 2.908 2.883 0.815 0.928 1.394 2.034 1.911 3.162 0.807 1.762 1.333 3.586 1.28 5.546-0.012 0.362-0.003 0.721-0.003 1.080zM41.335 12.427c-0.081-0.616-0.131-1.329-0.281-2.022-0.429-1.992-1.583-3.548-3.121-4.818-0.873-0.722-1.825-1.349-2.763-1.988-0.318-0.216-0.687-0.415-1.058-0.481-0.954-0.176-1.919-0.34-2.886-0.389-1.678-0.085-3.186-0.518-4.453-1.685-0.933-0.858-1.948-0.941-2.917-0.186-1.099 0.855-2.349 1.357-3.624 1.854-0.934 0.364-1.833 0.823-2.731 1.276-0.75 0.379-1.187 0.971-1.177 1.867 0.006 0.503-0.225 0.923-0.69 1.201-0.388 0.234-0.762 0.492-1.117 0.773-0.993 0.781-1.767 1.661-1.934 3.027-0.132 1.080-0.459 2.148-1.2 3.038-0.248 0.306-0.401 0.677-0.442 1.069-0.068 0.807-0.040 1.625-0.020 2.437 0.006 0.217 0.1 0.451 0.211 0.642 0.256 0.452 0.534 0.891 0.835 1.315 0.727 1.010 1.359 2.046 1.505 3.329 0.141 1.244 0.742 2.257 1.759 3.030 1.473 1.121 2.892 2.311 4.387 3.402 0.803 0.588 1.663 1.102 2.723 1.221s2.098 0.408 3.048 0.941c0.199 0.107 0.418 0.174 0.643 0.197 1.34 0.144 2.581-0.187 3.758-0.814 0.369-0.197 0.749-0.375 1.131-0.546 0.92-0.412 1.94-0.682 2.741-1.255 0.891-0.639 1.845-0.923 2.868-1.101 0.442-0.077 0.803-0.259 1.091-0.588 0.344-0.39 0.661-0.802 1.019-1.179 0.37-0.389 0.637-0.802 0.702-1.356 0.099-0.849 0.463-1.599 0.924-2.319 0.781-1.217 1.225-2.562 1.456-3.992 0.061-0.375 0.095-0.692-0.091-1.023-0.538-0.953-0.318-2.035-0.488-3.049-0.086-0.548 0.112-1.148 0.195-1.832l-0.002 0.001zM34.865 2.909c-0.227-0.251-0.299-0.364-0.402-0.434-0.186-0.128-0.388-0.233-0.585-0.344-1.687-0.95-3.535-1.412-5.423-1.743-0.379-0.067-0.778-0.037-1.165-0.022-0.101 0.004-0.221 0.102-0.285 0.19-0.029 0.040 0.037 0.18 0.092 0.248 0.42 0.5 0.968 0.878 1.585 1.092 1.066 0.383 2.186 0.594 3.319 0.623 0.48 0.013 0.958 0.104 1.436 0.169 0.407 0.058 0.814 0.127 1.428 0.223zM20.532 30.284c-1.132-0.925-2.125-1.752-3.135-2.556-0.836-0.666-1.691-1.309-2.545-1.951-0.096-0.072-0.247-0.070-0.458-0.124 1.030 1.728 4.469 4.353 6.138 4.632zM12.903 8.699c0.683-0.521 1.315-1.070 2.008-1.524 0.972-0.633 1.344-1.421 1.115-2.773-0.69 0.564-1.182 1.244-1.714 1.861-0.562 0.651-0.979 1.426-1.448 2.155-0.036 0.059 0.022 0.175 0.039 0.281zM35.933 28.421c-0.637-0.044-1.279 0.069-1.678 0.412-0.758 0.652-1.661 0.98-2.578 1.306-0.482 0.171-0.936 0.422-1.39 0.661-0.063 0.033-0.074 0.209-0.061 0.313 0.004 0.035 0.174 0.092 0.244 0.069 0.824-0.281 1.676-0.507 2.456-0.883 0.957-0.459 1.856-1.040 2.772-1.579 0.096-0.054 0.147-0.181 0.236-0.299zM11.596 19.382c-0.183 0.54-0.147 0.838-0.032 1.156 0.319 0.883 0.513 1.814 1.089 2.585 0.213 0.286 0.257 0.925 0.651 0.787 0.347-0.12-0.059-0.627-0.083-0.968-0.091-1.304-0.777-2.355-1.625-3.561zM17.775 3.142l0.086 0.129c0.476-0.176 0.956-0.343 1.428-0.532 2.485-0.949 3.496-1.371 4.502-1.801l-1.44 0.547c0.205-0.087 0.393-0.225 0.568-0.366 0.049-0.040 0.040-0.175 0.025-0.258-0.008-0.037-0.105-0.078-0.161-0.080-0.101 0.002-0.198 0.019-0.288 0.049l0.007-0.002c-1.383 0.393-2.688 0.974-3.936 1.68-0.292 0.165-0.529 0.422-0.791 0.636zM42.071 17.147c0.084-0.097 0.149-0.138 0.154-0.183 0.135-1.421-0.016-2.829-0.21-4.233-0.010-0.071-0.108-0.172-0.174-0.18-0.073-0.010-0.188 0.051-0.233 0.117-0.073 0.104-0.119 0.225-0.133 0.352-0.073 1.158 0.003 2.321 0.227 3.46 0.044 0.23 0.235 0.432 0.369 0.668zM11.262 13.227c0.54-0.206 0.621-0.578 0.678-0.915 0.141-0.82 0.494-1.61 0.377-2.477-0.564 1.035-1.065 2.083-1.055 3.392h-0zM24.328 31.234c-1.21-0.535-1.538-0.591-2.616-0.441 0.457 0.173 0.868 0.448 1.281 0.452 0.431 0.006 0.898 0.534 1.335-0.011h-0z">
            </path>
            <path
                d="M26.823 20.593c-0.827-0.015-1.396-0.361-1.817-1.030-0.392-0.624-1.044-0.947-1.642-1.332-0.753-0.484-1.366-1.030-1.54-2.012-0.12-0.665 0.020-1.243 0.29-1.769 0.227-0.439 0.632-0.847 1.057-1.108 0.461-0.283 0.844-0.55 1.056-1.073 0.241-0.602 0.848-0.638 1.386-0.746 0.506-0.102 1.021-0.167 1.521-0.295 0.683-0.174 1.303-0.12 1.802 0.411 0.386 0.412 0.836 0.708 1.338 0.958 0.522 0.26 0.695 0.564 0.531 1.107-0.111 0.369-0.004 0.62 0.134 0.914 0.15 0.321 0.305 0.647 0.408 0.986 0.344 1.128-0.052 2.077-1.111 2.58-0.656 0.311-1.159 0.726-1.322 1.456-0.066 0.294-0.249 0.461-0.509 0.537-0.524 0.153-1.055 0.28-1.583 0.417zM30.297 15.864c0.017-1.987-1.49-3.576-3.45-3.579-1.759 0-3.528 1.189-3.596 3.469-0.055 1.824 1.465 3.524 3.447 3.53 2.414 0.012 3.552-1.663 3.599-3.42zM23.231 17.764c0-0.255 0.024-0.385-0.004-0.503-0.26-1.079-0.429-2.148 0.161-3.188 0.043-0.075-0.055-0.229-0.088-0.346-0.116 0.037-0.255 0.045-0.343 0.117-0.974 0.799-1.409 2.718 0.274 3.92zM26.849 11.787c0.408 0.149 0.64 0.255 0.884 0.321 0.898 0.237 1.664 0.664 2.197 1.451 0.105 0.155 0.241 0.385 0.442 0.209 0.107-0.094 0.142-0.382 0.080-0.526-0.083-0.191-0.272-0.43-0.454-0.468-0.493-0.103-0.763-0.46-1.085-0.771-0.541-0.519-1.144-0.682-2.065-0.215zM26.794 19.609l-0.012-0.075c-0.259 0-0.52-0.022-0.774 0.009-0.131 0.016-0.25 0.127-0.374 0.195 0.113 0.1 0.211 0.257 0.341 0.29 0.696 0.175 1.397 0.213 2.083-0.055 0.117-0.046 0.248-0.106 0.321-0.201 0.065-0.080 0.086-0.223 0.073-0.331-0.005-0.040-0.168-0.101-0.248-0.088-0.471 0.074-0.94 0.167-1.409 0.254l-0.002 0.001zM30.352 17.571c0.482-0.089 0.697-0.361 0.725-0.779 0.021-0.352 0.016-0.705-0.015-1.056-0.008-0.093-0.137-0.175-0.21-0.263-0.107 0.101-0.325 0.238-0.305 0.299 0.196 0.609-0.213 1.155-0.194 1.797v0.001zM34.761 20.323c-0.028 0.014-0.139 0.107-0.26 0.12-0.11 0.013-0.271-0.024-0.339-0.101-0.343-0.386-0.675-0.783-0.982-1.199-0.080-0.109-0.113-0.401-0.067-0.426 0.151-0.083 0.445-0.17 0.511-0.098 0.388 0.427 0.729 0.897 1.079 1.357 0.034 0.046 0.024 0.125 0.059 0.346zM18.351 23.668c0.179 0.014 0.533 0.025 0.878 0.084 0.086 0.015 0.201 0.183 0.201 0.283s-0.099 0.274-0.185 0.295c-0.671 0.166-1.338 0.207-1.932-0.241-0.034-0.031-0.059-0.070-0.076-0.112s-0.023-0.089-0.019-0.134c0.013-0.067 0.117-0.16 0.187-0.165 0.257-0.022 0.516-0.010 0.946-0.010zM39.372 9.562l0.254 0.139c-0.072 0.129-0.116 0.336-0.221 0.373-0.483 0.177-0.979 0.319-1.483 0.423-0.145 0.028-0.356-0.114-0.489-0.231-0.154-0.136-0.062-0.431 0.132-0.461 0.571-0.088 1.147-0.155 1.807-0.242zM22.297 26.541c0.268 0.125 0.493 0.16 0.602 0.294 0.3 0.372 0.575 0.764 0.822 1.174 0.12 0.195 0.010 0.406-0.192 0.462-0.111 0.031-0.313-0.060-0.395-0.16-0.327-0.394-0.631-0.807-0.909-1.238-0.064-0.102 0.035-0.308 0.071-0.532zM32.825 11.018c0.017-0.114 0-0.244 0.053-0.294 0.072-0.066 0.227-0.12 0.302-0.085 0.102 0.049 0.167 0.182 0.237 0.286 0.194 0.291 0.387 0.584 0.572 0.883 0.083 0.134 0.194 0.276 0.201 0.42 0.008 0.133-0.073 0.306-0.174 0.398-0.056 0.051-0.286 0.018-0.343-0.053-0.371-0.471-0.816-0.913-0.849-1.554zM33.98 6.010c-0.080 0.481-0.112 0.836-0.206 1.175-0.059 0.183-0.17 0.345-0.321 0.465-0.106 0.086-0.292 0.073-0.442 0.105-0.012-0.14-0.056-0.286-0.031-0.419 0.078-0.41 0.183-0.815 0.277-1.222 0.007-0.032 0.005-0.065 0.014-0.096 0.074-0.245 0.234-0.432 0.49-0.331 0.129 0.051 0.189 0.276 0.219 0.323zM27.054 9.141c0.226 0.028 0.518 0.043 0.796 0.111 0.095 0.023 0.236 0.194 0.219 0.268-0.029 0.132-0.139 0.306-0.255 0.345-0.184 0.057-0.381 0.058-0.566 0.003-0.321-0.102-0.621-0.136-0.941-0.002-0.21 0.088-0.408-0.004-0.464-0.214-0.075-0.281 0.136-0.417 0.374-0.456 0.253-0.042 0.515-0.035 0.837-0.054zM32.064 22.97c-0.091 0.398-0.161 0.748-0.259 1.089-0.019 0.067-0.161 0.157-0.22 0.142-0.107-0.026-0.257-0.11-0.279-0.198-0.048-0.189-0.054-0.386-0.016-0.577 0.076-0.35 0.15-0.682 0.008-1.039-0.067-0.171-0.048-0.444 0.212-0.444 0.14 0 0.342 0.173 0.405 0.316 0.102 0.229 0.109 0.499 0.149 0.71zM28.111 22.868c-0.052 0.093-0.078 0.204-0.146 0.251-0.423 0.291-0.847 0.584-1.292 0.838-0.114 0.065-0.313 0.025-0.458-0.018-0.212-0.063-0.257-0.342-0.080-0.455 0.487-0.312 0.977-0.621 1.478-0.908 0.080-0.046 0.241 0.004 0.345 0.055 0.070 0.035 0.1 0.149 0.154 0.237zM22.723 4.155c0.069 0.040 0.198 0.075 0.215 0.139 0.168 0.618 0.33 1.238 0.463 1.864 0.037 0.174-0.193 0.27-0.347 0.166-0.486-0.327-0.788-1.536-0.505-2.042 0.029-0.050 0.101-0.075 0.174-0.128zM28.724 5.911c-0.146-0.097-0.304-0.147-0.325-0.231-0.023-0.091 0.053-0.247 0.135-0.321 0.356-0.318 0.729-0.618 1.117-0.897 0.131-0.092 0.402-0.157 0.502-0.085 0.237 0.166 0.112 0.401-0.053 0.573-0.222 0.231-0.442 0.475-0.697 0.662-0.196 0.141-0.447 0.201-0.678 0.299zM19.489 9.177l-0.355 0.335c-0.101-0.11-0.251-0.201-0.294-0.331-0.17-0.512-0.313-1.033-0.448-1.555-0.018-0.072 0.040-0.219 0.1-0.243 0.098-0.040 0.26-0.056 0.335 0 0.147 0.109 0.316 0.254 0.364 0.418 0.127 0.425 0.193 0.87 0.298 1.377zM15.602 17.757c-0.326 0.596-0.573 1.207-1.18 1.533-0.102 0.055-0.328-0.015-0.437-0.102-0.186-0.147 0-0.27 0.090-0.395 0.285-0.392 0.548-0.8 0.85-1.177 0.078-0.097 0.276-0.144 0.411-0.131 0.092 0.008 0.166 0.164 0.266 0.272zM19.282 17.807c0.17 0.098 0.293 0.128 0.316 0.192 0.038 0.106 0.057 0.272 0 0.346-0.093 0.117-0.253 0.184-0.39 0.263-0.356 0.204-0.708 0.42-1.078 0.594-0.113 0.053-0.317 0.037-0.418-0.035-0.207-0.147-0.134-0.383 0.032-0.487 0.509-0.318 1.043-0.596 1.538-0.873zM37.698 15.106c-0.131 0.295-0.315 0.74-0.533 1.167-0.034 0.066-0.245 0.102-0.335 0.063-0.083-0.037-0.174-0.205-0.157-0.295 0.088-0.475 0.184-0.952 0.332-1.411 0.045-0.14 0.248-0.267 0.405-0.314 0.058-0.017 0.209 0.201 0.281 0.334 0.041 0.075 0.007 0.191 0.007 0.457zM15.5 11.562c0.576 0.517 0.508 1.218 0.572 1.866 0.012 0.12-0.138 0.292-0.258 0.379-0.063 0.046-0.317-0.028-0.323-0.070-0.091-0.654-0.161-1.312-0.216-1.971-0.004-0.056 0.131-0.125 0.226-0.205zM28.97 27.56c0.097 0.026 0.192 0.057 0.285 0.093 0.346 0.16 0.695 0.317 1.032 0.493 0.161 0.083 0.321 0.188 0.437 0.321 0.133 0.154-0.019 0.451-0.205 0.41-0.628-0.136-1.242-0.325-1.712-0.794-0.070-0.069-0.068-0.243-0.045-0.358 0.013-0.065 0.135-0.11 0.208-0.165zM21.324 11.751c0.033 0.104 0.147 0.265 0.107 0.366-0.211 0.536-0.455 1.059-0.704 1.578-0.031 0.064-0.161 0.12-0.238 0.11-0.067-0.008-0.161-0.103-0.178-0.175-0.132-0.579 0.284-1.615 0.747-1.876 0.048-0.027 0.124-0.004 0.266-0.004zM39.288 20.539c-0.072-0.046-0.223-0.102-0.301-0.209-0.031-0.043 0.070-0.239 0.157-0.301 0.387-0.281 0.781-0.549 1.192-0.789 0.111-0.065 0.341-0.069 0.423 0.003 0.075 0.067 0.086 0.321 0.018 0.414-0.345 0.48-0.779 0.846-1.49 0.883zM36.901 24.67c-0.298-0.031-0.428-0.034-0.552-0.062-0.053-0.012-0.131-0.074-0.132-0.114-0.006-0.091 0.018-0.182 0.068-0.259 0.064-0.073 0.148-0.125 0.241-0.15 0.46-0.138 0.919-0.276 1.386-0.388 0.101-0.024 0.314 0.043 0.328 0.1 0.031 0.137-0.006 0.303-0.060 0.441-0.029 0.073-0.142 0.134-0.23 0.16-0.399 0.11-0.8 0.207-1.049 0.272zM23.064 21.355c-0.033 0.14-0.086 0.45-0.19 0.742-0.026 0.073-0.227 0.142-0.319 0.116s-0.201-0.178-0.198-0.274c0.010-0.541 0.037-1.083 0.092-1.622 0.012-0.118 0.161-0.221 0.247-0.331 0.103 0.109 0.27 0.205 0.296 0.329 0.058 0.279 0.046 0.573 0.073 1.039zM44.599 4.422c0-1.146 0.278-2.016 0.833-2.608 0.561-0.598 1.28-0.898 2.157-0.898s1.574 0.258 2.091 0.775c0.524 0.516 0.785 1.342 0.785 2.475s-0.277 1.99-0.832 2.57c-0.555 0.579-1.296 0.869-2.223 0.869-0.801 0-1.457-0.23-1.968-0.69-0.265-0.239-0.473-0.57-0.625-0.992-0.145-0.428-0.218-0.929-0.218-1.502zM47.56 1.012c-0.637 0-1.16 0.283-1.57 0.85-0.404 0.567-0.606 1.398-0.606 2.494s0.192 1.896 0.577 2.4c0.385 0.504 0.896 0.756 1.533 0.756 0.643 0 1.167-0.283 1.571-0.85 0.41-0.573 0.615-1.401 0.615-2.485 0-1.090-0.195-1.89-0.587-2.4-0.385-0.51-0.896-0.765-1.533-0.765zM52.101 7.569h-0.785v-6.614h0.785v3.042h3.075v-3.042h0.785v6.614h-0.785v-3.477h-3.075v3.477zM59.997 7.569h-0.123l0.823-6.614h0.312l1.987 6.113 1.977-6.113h0.312l0.823 6.614h-0.785l-0.653-5.291-1.713 5.291h-0.596l-1.731-5.225-0.634 5.225zM71.35 0.955c0.12 0.12 0.18 0.274 0.18 0.463 0 0.157-0.035 0.318-0.104 0.482l-1.694 3.43v2.239h-0.785v-2.031l-1.892-4.582h0.804l1.807 4.261 1.646-3.316c0.069-0.157 0.104-0.321 0.104-0.491s-0.047-0.302-0.142-0.397l0.076-0.057zM1.334 9.306c0.489-0.022 0.967-0.033 1.434-0.033 0.478 0 0.978 0.050 1.5 0.15 0.534 0.1 1.056 0.289 1.567 0.566 0.522 0.266 0.961 0.616 1.317 1.049 0.367 0.422 0.661 0.982 0.884 1.682s0.333 1.548 0.333 2.547c0 0.999-0.167 1.898-0.5 2.697-0.322 0.788-0.767 1.393-1.334 1.815-1.1 0.821-2.429 1.232-3.985 1.232-0.545 0-1.117-0.022-1.717-0.067h-0.834v-11.638h1.334zM1.384 20.811c0.233 0.022 0.528 0.033 0.884 0.033s0.622-0.006 0.8-0.017c0.178-0.011 0.422-0.055 0.734-0.133 0.311-0.089 0.6-0.205 0.867-0.35s0.545-0.355 0.834-0.633c0.3-0.289 0.556-0.627 0.767-1.016 0.478-0.91 0.717-2.098 0.717-3.563 0-1.043-0.128-1.942-0.383-2.697-0.256-0.766-0.55-1.332-0.884-1.698-0.322-0.366-0.717-0.655-1.184-0.866-0.467-0.222-0.839-0.35-1.117-0.383s-0.6-0.050-0.967-0.050-0.722 0.017-1.067 0.050v11.321zM44.869 20.944h-0.216v-11.654h0.567l6.936 10.772v-10.772h0.216v11.654h-1.217l-6.286-9.656v9.656zM62.638 9.29h0.217v6.66c0 1.743-0.344 3.025-1.034 3.846-0.689 0.81-1.589 1.215-2.701 1.215-0.7 0-1.295-0.061-1.784-0.183-0.489-0.133-0.95-0.372-1.384-0.716-0.889-0.688-1.333-2.076-1.333-4.162v-6.66h1.384v6.643c0 2.020 0.306 3.369 0.917 4.046 0.311 0.333 0.634 0.561 0.967 0.683 0.345 0.122 0.756 0.183 1.234 0.183 1.067 0 1.917-0.388 2.551-1.165 0.645-0.788 0.967-2.037 0.967-3.746v-6.643zM68.542 20.944h-1.384v-11.488h-2.884v-0.166h7.169v0.166h-2.901v11.488z">
            </path>
        </symbol>
        <symbol id="icon-donut" viewBox="0 0 32 32">
            <path
                d="M32 16v0.781c0.094 2.656-0.75 5.031-2.063 7.281-0.469 0.781-0.875 1.531-1.281 2.313-0.282 0.632-0.791 1.12-1.42 1.369l-0.018 0.006c-0.375 0.156-0.719 0.406-1.063 0.688-2.356 1.918-5.323 3.171-8.569 3.434l-0.055 0.004c-0.406 0-0.781 0.125-1.156 0.125-0.406 0-0.781-0.125-1.156-0.094-1.688 0.063-3.219-0.469-4.75-1-4.023-1.498-7.194-4.486-8.898-8.276l-0.040-0.099c-0.531-1.219-1-2.469-1.125-3.813 0-0.219-0.094-0.438-0.156-0.656-0.469-1.5-0.188-2.969 0.094-4.469 1.173-7.747 7.785-13.615 15.767-13.615 3.709 0 7.122 1.267 9.83 3.391l-0.035-0.026c1.063 0.844 2 1.844 2.906 2.875 0.813 0.906 1.375 2.031 1.906 3.156 0.813 1.75 1.344 3.594 1.281 5.531v1.094zM30.875 12.438c-0.063-0.625-0.125-1.344-0.281-2.031-0.438-2-1.594-3.563-3.125-4.813-0.875-0.719-1.813-1.344-2.75-2-0.313-0.219-0.688-0.406-1.063-0.469-0.969-0.188-1.906-0.344-2.875-0.406-1.688-0.063-3.188-0.5-4.469-1.688-0.938-0.844-1.938-0.938-2.906-0.188-1.094 0.875-2.344 1.375-3.625 1.875-0.938 0.344-1.844 0.813-2.75 1.281-0.75 0.375-1.188 0.969-1.156 1.844 0 0.531-0.219 0.938-0.688 1.219-0.406 0.219-0.781 0.5-1.125 0.781-1 0.781-1.781 1.656-1.938 3-0.125 1.094-0.469 2.156-1.188 3.063-0.25 0.281-0.406 0.656-0.469 1.063-0.063 0.813-0.031 1.625 0 2.438 0 0.219 0.094 0.438 0.219 0.625 0.25 0.469 0.531 0.906 0.813 1.313 0.75 1.031 1.375 2.063 1.5 3.344 0.156 1.25 0.75 2.25 1.781 3.031 1.469 1.125 2.875 2.313 4.375 3.406 0.813 0.594 1.656 1.094 2.719 1.219s2.094 0.406 3.063 0.938c0.188 0.094 0.406 0.188 0.625 0.188 1.344 0.156 2.594-0.188 3.781-0.813l1.125-0.531c0.906-0.406 1.938-0.688 2.75-1.25 0.875-0.656 1.844-0.938 2.844-1.125 0.438-0.063 0.813-0.25 1.094-0.563 0.344-0.406 0.656-0.813 1.031-1.188 0.375-0.406 0.625-0.813 0.688-1.375 0.094-0.844 0.469-1.594 0.938-2.313 0.781-1.219 1.219-2.563 1.438-3.969 0.063-0.375 0.094-0.719-0.063-1.031-0.563-0.969-0.344-2.031-0.5-3.063-0.094-0.531 0.094-1.125 0.188-1.813zM24.406 2.906c-0.219-0.25-0.281-0.375-0.406-0.438l-0.594-0.344c-1.656-0.938-3.531-1.406-5.406-1.75-0.375-0.063-0.781-0.031-1.156 0-0.125 0-0.219 0.094-0.281 0.188-0.031 0.031 0.031 0.188 0.094 0.25 0.406 0.5 0.938 0.875 1.563 1.094 1.063 0.375 2.188 0.594 3.313 0.625 0.5 0 0.969 0.094 1.438 0.156l1.438 0.219zM10.063 30.281l-3.125-2.563-2.531-1.938c-0.094-0.063-0.25-0.063-0.469-0.125 1.031 1.719 4.469 4.344 6.125 4.625zM2.438 8.688c0.688-0.5 1.313-1.063 2.031-1.5 0.969-0.656 1.344-1.438 1.094-2.781-0.688 0.563-1.188 1.25-1.719 1.844-0.563 0.656-0.969 1.438-1.438 2.156-0.031 0.063 0.031 0.188 0.031 0.281zM25.469 28.406c-0.625-0.031-1.281 0.094-1.656 0.438-0.781 0.656-1.688 0.969-2.594 1.281-0.469 0.188-0.938 0.438-1.375 0.688-0.063 0.031-0.094 0.188-0.063 0.313 0 0.031 0.156 0.094 0.219 0.063 0.844-0.281 1.688-0.5 2.469-0.875 0.969-0.469 1.844-1.063 2.781-1.594 0.094-0.063 0.125-0.188 0.219-0.313zM1.125 19.375c-0.156 0.531-0.125 0.844-0.031 1.156 0.344 0.875 0.531 1.813 1.094 2.594 0.219 0.281 0.281 0.938 0.656 0.781 0.344-0.125-0.063-0.625-0.094-0.969-0.063-1.313-0.75-2.344-1.625-3.563zM7.313 3.156l0.094 0.125 1.438-0.531 3.063-1.281c0.188-0.063 0.375-0.219 0.563-0.344l0.031-0.25c-0.031-0.063-0.125-0.094-0.188-0.094l-0.281 0.031c-1.375 0.406-2.688 1-3.938 1.688-0.281 0.156-0.5 0.438-0.781 0.656zM31.625 17.156l0.156-0.188c0.125-1.438-0.031-2.844-0.219-4.25 0-0.063-0.125-0.156-0.188-0.156-0.063-0.031-0.188 0.031-0.219 0.094-0.094 0.125-0.125 0.25-0.125 0.375-0.094 1.156 0 2.313 0.219 3.438 0.031 0.25 0.219 0.438 0.375 0.688zM0.813 13.219c0.531-0.188 0.625-0.563 0.656-0.906 0.156-0.813 0.5-1.625 0.406-2.469-0.594 1.031-1.094 2.063-1.063 3.375zM13.875 31.219c-1.219-0.531-1.531-0.563-2.625-0.438 0.469 0.188 0.875 0.469 1.281 0.469 0.438 0 0.906 0.531 1.344-0.031z">
            </path>
            <path
                d="M16.375 20.594c-0.844 0-1.406-0.375-1.813-1.031-0.406-0.625-1.063-0.938-1.656-1.344-0.75-0.469-1.375-1.031-1.531-2-0.125-0.656 0-1.25 0.281-1.781 0.219-0.438 0.625-0.844 1.063-1.094 0.469-0.281 0.844-0.563 1.063-1.063 0.219-0.625 0.844-0.656 1.375-0.75l1.531-0.313c0.688-0.156 1.281-0.125 1.781 0.406 0.406 0.438 0.844 0.719 1.344 0.969 0.531 0.25 0.688 0.563 0.531 1.125-0.094 0.344 0 0.594 0.125 0.906l0.438 0.969c0.344 1.125-0.063 2.094-1.125 2.594-0.656 0.313-1.156 0.719-1.313 1.438-0.063 0.313-0.25 0.469-0.531 0.563l-1.563 0.406zM19.844 15.875c0-2-1.5-3.594-3.469-3.594-1.75 0-3.5 1.188-3.594 3.469-0.031 1.844 1.469 3.531 3.469 3.531 2.406 0 3.531-1.656 3.594-3.406zM12.781 17.75v-0.5c-0.281-1.063-0.438-2.125 0.156-3.188 0.031-0.063-0.063-0.219-0.094-0.344l-0.344 0.125c-0.521 0.45-0.849 1.111-0.849 1.849 0 0.861 0.447 1.618 1.121 2.052l0.010 0.006zM16.406 11.781l0.875 0.313c0.906 0.25 1.656 0.688 2.188 1.469 0.094 0.156 0.25 0.375 0.438 0.219 0.125-0.094 0.156-0.406 0.094-0.531-0.094-0.188-0.281-0.438-0.469-0.469-0.469-0.125-0.75-0.469-1.063-0.781-0.563-0.531-1.156-0.688-2.063-0.219zM16.344 19.625l-0.031-0.094h-0.75c-0.156 0.031-0.25 0.125-0.375 0.219 0.094 0.094 0.188 0.25 0.344 0.281 0.688 0.188 1.375 0.219 2.063-0.063 0.125-0.031 0.25-0.094 0.344-0.188 0.063-0.094 0.063-0.219 0.063-0.344l-0.25-0.094-1.406 0.25v0.031zM19.906 17.563c0.469-0.094 0.688-0.344 0.719-0.781 0.031-0.344 0-0.688-0.031-1.031 0-0.094-0.125-0.188-0.188-0.281-0.125 0.094-0.344 0.25-0.313 0.313 0.188 0.594-0.219 1.156-0.188 1.781zM24.313 20.313c-0.031 0.031-0.156 0.125-0.281 0.125-0.094 0.031-0.25-0.031-0.313-0.094l-1-1.188c-0.063-0.125-0.094-0.406-0.063-0.438 0.156-0.094 0.438-0.156 0.5-0.094 0.406 0.406 0.75 0.906 1.094 1.344l0.063 0.344zM7.906 23.656l0.875 0.094c0.063 0.031 0.188 0.188 0.188 0.281s-0.094 0.281-0.188 0.313c-0.656 0.156-1.344 0.188-1.938-0.25-0.059-0.057-0.095-0.136-0.095-0.224 0-0.009 0-0.018 0.001-0.027l-0 0.001c0.031-0.063 0.125-0.156 0.188-0.156l0.969-0.031zM28.906 9.563l0.25 0.125c-0.063 0.156-0.094 0.344-0.219 0.375-0.469 0.188-0.969 0.344-1.469 0.438-0.156 0.031-0.344-0.125-0.5-0.25s-0.063-0.406 0.125-0.438l1.813-0.25zM11.844 26.531c0.25 0.125 0.5 0.156 0.594 0.313 0.313 0.375 0.594 0.75 0.813 1.156 0.125 0.219 0.031 0.406-0.188 0.469-0.094 0.031-0.313-0.063-0.375-0.156-0.344-0.406-0.656-0.813-0.906-1.25-0.063-0.094 0.031-0.313 0.063-0.531zM22.375 11.031l0.031-0.313c0.094-0.063 0.25-0.125 0.313-0.094 0.094 0.063 0.156 0.188 0.25 0.313l0.563 0.875c0.094 0.125 0.188 0.281 0.188 0.406 0.031 0.156-0.063 0.313-0.156 0.406-0.063 0.063-0.281 0.031-0.344-0.063-0.375-0.469-0.813-0.906-0.844-1.531zM23.531 6l-0.219 1.188c-0.063 0.188-0.156 0.344-0.313 0.469-0.125 0.094-0.281 0.063-0.438 0.094-0.031-0.125-0.063-0.281-0.031-0.406l0.281-1.219v-0.094c0.063-0.25 0.25-0.438 0.5-0.344 0.125 0.063 0.188 0.281 0.219 0.313zM16.594 9.125l0.813 0.125c0.094 0.031 0.219 0.188 0.219 0.281-0.031 0.125-0.156 0.281-0.281 0.344-0.156 0.031-0.375 0.063-0.563 0-0.313-0.125-0.625-0.156-0.938 0-0.188 0.063-0.406 0-0.469-0.219-0.063-0.281 0.156-0.438 0.375-0.469l0.844-0.063zM21.594 22.969l-0.25 1.094c0 0.063-0.156 0.156-0.219 0.125-0.094 0-0.25-0.094-0.281-0.188-0.031-0.188-0.063-0.375 0-0.563 0.063-0.375 0.125-0.688 0-1.063-0.063-0.156-0.063-0.438 0.219-0.438 0.125 0 0.344 0.188 0.406 0.313 0.094 0.25 0.094 0.5 0.125 0.719zM17.656 22.875l-0.156 0.25-1.281 0.844c-0.125 0.063-0.313 0-0.469-0.031-0.219-0.063-0.25-0.344-0.063-0.469l1.469-0.906c0.094-0.031 0.25 0.031 0.344 0.063 0.063 0.031 0.094 0.156 0.156 0.25zM12.281 4.156c0.063 0.031 0.188 0.063 0.188 0.125l0.469 1.875c0.031 0.188-0.188 0.281-0.344 0.156-0.469-0.313-0.781-1.531-0.5-2.031 0.031-0.063 0.094-0.063 0.188-0.125zM18.281 5.906c-0.156-0.094-0.313-0.156-0.344-0.219-0.031-0.094 0.063-0.25 0.125-0.344l1.125-0.875c0.125-0.094 0.406-0.156 0.5-0.094 0.25 0.156 0.125 0.406-0.031 0.563-0.25 0.25-0.469 0.5-0.719 0.688-0.188 0.125-0.438 0.188-0.656 0.281zM9.031 9.188l-0.344 0.313c-0.125-0.094-0.25-0.188-0.313-0.313l-0.438-1.563c-0.031-0.063 0.031-0.219 0.094-0.25 0.094-0.031 0.25-0.063 0.344 0 0.156 0.125 0.313 0.25 0.375 0.438 0.125 0.406 0.188 0.844 0.281 1.375zM5.156 17.75c-0.344 0.594-0.594 1.219-1.188 1.531-0.094 0.063-0.344 0-0.438-0.094-0.188-0.156 0-0.281 0.094-0.406 0.281-0.375 0.531-0.781 0.844-1.156 0.094-0.094 0.281-0.156 0.406-0.125 0.094 0 0.156 0.156 0.281 0.25zM8.813 17.813c0.188 0.094 0.313 0.125 0.344 0.188v0.344c-0.094 0.125-0.281 0.188-0.406 0.25-0.344 0.219-0.719 0.438-1.063 0.594-0.125 0.063-0.344 0.063-0.438-0.031-0.188-0.125-0.125-0.375 0.031-0.469l1.531-0.875zM27.25 15.094l-0.531 1.188c-0.031 0.063-0.25 0.094-0.344 0.063s-0.188-0.219-0.156-0.313c0.094-0.469 0.188-0.938 0.344-1.406 0.031-0.125 0.219-0.25 0.375-0.313 0.063 0 0.219 0.219 0.281 0.344 0.063 0.063 0.031 0.188 0.031 0.438zM5.031 11.563c0.594 0.531 0.531 1.219 0.594 1.875 0 0.125-0.156 0.281-0.281 0.375-0.063 0.031-0.313-0.031-0.313-0.063l-0.219-1.969c0-0.063 0.125-0.125 0.219-0.219zM18.5 27.563l0.313 0.094 1.031 0.5c0.156 0.063 0.313 0.188 0.438 0.313 0.125 0.156-0.031 0.438-0.219 0.406-0.625-0.125-1.25-0.313-1.719-0.781-0.063-0.094-0.063-0.25-0.031-0.375 0-0.063 0.125-0.094 0.188-0.156zM10.875 11.75c0.031 0.094 0.125 0.281 0.094 0.375l-0.688 1.563c-0.031 0.063-0.156 0.125-0.25 0.125l-0.188-0.188c-0.125-0.563 0.281-1.625 0.75-1.875h0.281zM28.844 20.531c-0.094-0.031-0.25-0.094-0.313-0.188-0.031-0.063 0.063-0.25 0.156-0.313 0.375-0.281 0.781-0.563 1.188-0.781 0.125-0.063 0.344-0.094 0.438 0 0.063 0.063 0.063 0.313 0 0.406-0.344 0.469-0.781 0.844-1.469 0.875zM26.438 24.656l-0.531-0.063c-0.063 0-0.156-0.063-0.156-0.094 0-0.094 0.031-0.188 0.094-0.25 0.063-0.094 0.125-0.125 0.219-0.156l1.406-0.406 0.313 0.094c0.031 0.156 0 0.313-0.063 0.469-0.031 0.063-0.125 0.125-0.219 0.156l-1.063 0.25zM12.594 21.344c-0.031 0.156-0.063 0.469-0.188 0.75 0 0.063-0.219 0.156-0.313 0.125s-0.188-0.188-0.188-0.281c0-0.531 0.031-1.094 0.094-1.625 0-0.125 0.156-0.219 0.25-0.313 0.094 0.094 0.25 0.188 0.281 0.313 0.063 0.281 0.063 0.563 0.063 1.031z">
            </path>
        </symbol>
    </defs>
</svg>